<svg version="1.1" id="Layer_1" xmlns="http://www.w3.org/2000/svg" xmlns:xlink="http://www.w3.org/1999/xlink" x="0px" y="0px"
	 width="100%" viewBox="0 0 336 336" enable-background="new 0 0 336 336" xml:space="preserve">
<rect width="336" height="336" fill="#ffffff" rx="48" ry="48" />
<path fill="#000000" opacity="1.000000" stroke="none" 
	d="
M287.827148,90.762299 
	C292.765442,92.234756 292.150757,96.045616 292.182556,99.484253 
	C292.257965,107.628967 292.224060,107.614731 300.437866,107.607635 
	C309.768677,107.599579 319.099518,107.633286 328.430328,107.623833 
	C332.444855,107.619766 335.898529,108.444290 336.237244,113.316620 
	C336.532654,117.566803 333.631744,120.147797 328.341797,120.197739 
	C318.012146,120.295258 307.678467,120.359451 297.351685,120.162292 
	C293.472992,120.088242 291.756165,121.349197 292.161530,125.314125 
	C292.346954,127.127701 292.236237,128.977905 292.175415,130.808701 
	C292.100769,133.056473 292.713043,134.588379 295.236816,135.144150 
	C298.322601,135.823685 299.346741,138.116562 299.335632,141.144196 
	C299.288177,154.140503 299.306519,167.137100 299.319458,180.133560 
	C299.323547,184.232361 297.347870,186.318665 293.219513,186.313705 
	C289.220642,186.308884 285.221710,186.293137 281.222961,186.313675 
	C277.606781,186.332245 275.645752,184.528763 275.262665,180.974197 
	C275.155792,179.982559 275.110748,178.980835 275.098358,177.982971 
	C274.968201,167.477646 276.299103,167.929169 264.550049,167.973633 
	C257.054352,168.002014 249.544510,167.863541 242.067413,168.277161 
	C234.124268,168.716568 227.063446,171.811539 219.988342,176.834412 
	C225.848541,181.145447 231.517319,184.563431 236.362976,189.078003 
	C252.309464,203.934784 262.031128,222.028610 265.186401,243.611526 
	C265.377869,244.921356 265.357391,246.273895 265.320007,247.603333 
	C265.180969,252.549042 262.051880,255.965683 257.458435,256.252106 
	C253.200577,256.517609 249.617004,253.662567 248.733688,248.960632 
	C247.505417,242.422592 246.425705,235.893967 243.973740,229.625198 
	C237.651062,213.460464 226.813522,201.330124 211.970016,192.527924 
	C208.481430,190.459167 206.385284,190.754135 204.644882,194.628799 
	C201.750732,201.072083 197.435822,205.730301 189.587326,205.759171 
	C186.106689,205.771957 186.090057,208.562225 186.089859,211.207932 
	C186.089615,214.166672 187.776413,214.831360 190.294220,214.783737 
	C193.291718,214.727036 196.302536,214.647476 199.288071,214.856598 
	C203.711075,215.166412 206.381226,217.306778 206.354706,222.136719 
	C206.296127,232.800186 206.395905,243.464691 206.310440,254.127808 
	C206.269348,259.254578 204.178665,261.332642 198.927750,261.358948 
	C183.598953,261.435699 168.269241,261.432037 152.940475,261.348450 
	C147.718109,261.319977 145.745117,259.300293 145.698181,253.997131 
	C145.603790,243.334183 145.685165,232.669785 145.660278,222.006073 
	C145.649109,217.215027 148.267151,215.023758 152.772568,214.818100 
	C155.932297,214.673859 159.103165,214.721283 162.268097,214.760254 
	C164.762344,214.790970 165.971573,213.676743 165.895615,211.150085 
	C165.825333,208.812439 166.150726,205.829147 162.865097,205.871826 
	C154.241379,205.983795 150.055954,200.526169 146.833694,193.770218 
	C145.445282,190.859161 143.943802,190.307343 141.028488,191.976410 
	C120.688354,203.621277 108.399551,220.900146 104.205650,243.949097 
	C103.907555,245.587372 103.664116,247.236908 103.319717,248.865219 
	C102.268677,253.834625 98.747498,256.668182 94.217964,256.235870 
	C89.609108,255.795990 86.474754,252.431778 86.735420,247.300247 
	C87.470337,232.832626 92.397476,219.672043 100.058731,207.508682 
	C107.089867,196.345734 116.251122,187.249817 127.379715,180.143311 
	C128.499130,179.428467 129.559967,178.617523 130.610962,177.803375 
	C130.839417,177.626434 130.908615,177.243942 131.288101,176.477600 
	C125.163551,171.729752 118.143799,168.850311 110.455551,168.401764 
	C100.822327,167.839752 91.141762,168.112411 81.482742,167.955887 
	C78.334526,167.904861 77.156319,169.271332 76.970398,172.437073 
	C76.151985,186.371841 76.072853,186.367172 61.943359,186.331696 
	C53.501900,186.310486 52.695274,185.534729 52.689953,177.300507 
	C52.682308,165.470337 52.744427,153.639832 52.664303,141.810226 
	C52.641491,138.441711 53.463520,135.847168 57.111107,135.055634 
	C59.420216,134.554581 59.868359,132.956390 59.798820,130.949326 
	C59.769989,130.117157 59.788643,129.283264 59.789566,128.450165 
	C59.798676,120.244507 59.798912,120.243820 51.753754,120.242851 
	C42.922779,120.241783 34.091755,120.256920 25.260878,120.227516 
	C23.769855,120.222549 22.225321,120.241539 20.799473,119.879463 
	C17.273199,118.984001 15.323179,116.689606 15.829269,112.935143 
	C16.295429,109.476898 18.414728,107.659363 21.970713,107.653656 
	C31.801281,107.637878 41.631844,107.616333 51.462418,107.609344 
	C59.729538,107.603477 59.720200,107.611000 59.814465,99.578094 
	C59.832031,98.081558 59.790901,96.554192 60.070297,95.097328 
	C60.600616,92.332054 62.183929,90.516090 65.236176,90.799797 
	C68.050491,91.061401 69.202026,92.942314 69.283821,95.600624 
	C69.329933,97.099121 69.331612,98.599213 69.338882,100.098648 
	C69.375282,107.602058 69.373611,107.605034 77.113846,107.593575 
	C86.444557,107.579773 95.775261,107.549759 105.105972,107.547134 
	C110.900787,107.545509 113.514977,109.427589 113.638458,113.630905 
	C113.764084,117.907150 110.838722,120.201454 104.964958,120.228867 
	C94.801254,120.276306 84.634697,120.362305 74.474426,120.167137 
	C70.624092,120.093170 68.838165,121.256638 69.311836,125.298950 
	C69.542999,127.271706 69.388168,129.293747 69.352943,131.292496 
	C69.320267,133.145996 69.772530,134.547318 71.904884,134.910767 
	C76.085289,135.623306 76.907005,138.636765 77.034164,142.290268 
	C77.430901,153.688904 77.473358,153.687744 88.935570,153.684799 
	C97.933167,153.682480 106.931053,153.633194 115.928276,153.689880 
	C124.362022,153.742996 131.531372,150.847595 137.486496,144.866806 
	C141.364197,140.972382 145.331802,137.167572 149.217773,133.281250 
	C152.459045,130.039673 156.271652,128.579483 160.906082,128.647354 
	C171.067825,128.796173 181.234085,128.765167 191.396881,128.655945 
	C196.028183,128.606155 199.806992,130.207123 203.026337,133.457397 
	C207.012238,137.481552 211.080841,141.423660 215.090393,145.424591 
	C220.840027,151.161880 227.894318,153.636292 235.878235,153.670761 
	C247.041702,153.718933 258.210358,153.490311 269.366882,153.772552 
	C273.839935,153.885727 275.390747,152.249008 275.099243,148.006317 
	C274.940247,145.691620 275.356598,143.340790 275.251587,141.018112 
	C275.109161,137.866928 276.544006,136.129395 279.417908,135.029922 
	C285.665802,132.639694 281.989532,127.288925 282.448364,123.335960 
	C282.890503,119.526093 279.278473,120.290367 276.951294,120.270668 
	C267.621124,120.191681 258.289886,120.245186 248.959030,120.237984 
	C247.460190,120.236832 245.950577,120.278969 244.464645,120.122894 
	C240.540482,119.710762 238.249603,117.351524 238.368393,113.528168 
	C238.489761,109.621590 240.995132,107.623253 244.999237,107.626320 
	C255.662994,107.634499 266.330597,107.437332 276.988708,107.676689 
	C281.342499,107.774467 283.171997,106.377129 282.700836,101.964005 
	C282.472504,99.825195 282.596832,97.629768 282.752045,95.473679 
	C282.955048,92.653168 284.242126,90.730690 287.827148,90.762299 
M181.770782,248.562988 
	C187.052582,244.789795 188.920761,240.378998 187.528976,234.967850 
	C186.367752,230.453079 181.758072,226.639420 177.079712,226.322998 
	C172.046295,225.982574 167.303101,228.520767 165.278015,233.001419 
	C163.190781,237.619522 163.659729,242.219162 167.004211,246.034988 
	C170.834793,250.405396 175.752975,250.991806 181.770782,248.562988 
z"/>
</svg>
